<svg width="46" height="49" xmlns="http://www.w3.org/2000/svg"><g fill-rule="nonzero" fill="none"><path d="M13.493 13.224c.176-.117.372-.176.608-.176h25.458c.568 0 1.019.431 1.078.98l4.762 32.522a1.111 1.111 0 0 1-.92 1.234c-.06 0-.099.02-.158.02h0H1.518c-.607 0-1.078-.49-1.078-1.077 0-.079 0-.138.02-.216l4.762-32.522c.079-.588.647-1 1.235-.921a.84.84 0 0 1 .314.098l3.37 1.312 3.352-1.254h0zM2.91 44.787l3.94-2.939 2.488-25.371-2.156-.843L2.91 44.787h0zm12.23-29.564l-.961 30.406h28.908l-4.469-30.406H15.14h0zm-4.39 1.332L8.26 41.927l3.744 3.036.92-29.211-2.175.803h0zm-.158 29.074l-3.076-2.488-3.332 2.488h6.408z" stroke="#EE8F8F" stroke-width=".5" fill="#EE8F8F"/><path d="M35.13 11.442a.719.719 0 0 1-.628.783.707.707 0 0 1-.783-.627c-.53-4.682-2.176-7.719-4.175-9.169-.882-.627-1.823-.96-2.763-.96-.941 0-1.901.314-2.764.96-.45.314-.862.725-1.274 1.195 1.49 1.803 2.823 4.37 3.763 7.72a.734.734 0 0 1-.49.881.735.735 0 0 1-.882-.49c-.842-2.958-1.979-5.27-3.253-6.896-1 1.646-1.744 3.899-2.058 6.779a.707.707 0 0 1-.784.627.707.707 0 0 1-.627-.784c.373-3.291 1.274-5.858 2.509-7.719-.51-.49-1.02-.901-1.529-1.195-.901-.529-1.803-.745-2.646-.666-.823.078-1.587.47-2.253 1.175-1.431 1.49-2.372 4.31-2.293 8.484a.72.72 0 0 1-.706.724.72.72 0 0 1-.725-.705c-.079-4.584 1.019-7.758 2.685-9.502.901-.94 1.98-1.47 3.136-1.587 1.136-.117 2.332.157 3.508.862.568.333 1.117.764 1.666 1.274.45-.51.901-.94 1.391-1.293C24.292.49 25.526.078 26.761.078c1.235 0 2.47.412 3.606 1.235 2.293 1.626 4.194 5.015 4.763 10.129zm-15.17 10.09c1.078 0 1.96-.882 1.96-1.96 0-1.077-.882-1.959-1.96-1.959-1.077 0-1.96.882-1.96 1.96.02 1.096.883 1.958 1.96 1.958zm14.229 0c1.078 0 1.96-.882 1.96-1.96 0-1.077-.882-1.959-1.96-1.959-1.078 0-1.96.882-1.96 1.96.02 1.096.882 1.958 1.96 1.958zm-9.642 10.853c-.686-.568-1.059-1.332-1.078-2.292-.04-1.077.352-1.96 1.136-2.625.686-.608 1.45-.96 2.568-1.078.254-.02.45-.254.45-.51l-.058-1.43a.49.49 0 0 1 .49-.509l.744-.02c.275 0 .51.216.51.49l.059 1.411c0 .255.215.47.47.49 1.039.059 1.764.372 2.41.92.608.51 1 1.196 1.157 2.058.02.157 0 .294-.098.411a.582.582 0 0 1-.372.196l-1.94.059a.524.524 0 0 1-.51-.392 1.482 1.482 0 0 0-.333-.705c-.51-.568-2.764-.51-3.332-.059-.45.372-.47 1.176.02 1.528.587.431 2.626.705 3.468.94 1.078.294 1.882.686 2.411 1.117.686.588 1.039 1.372 1.078 2.41.04 1.176-.314 2.096-1.058 2.763-.667.587-1.49.96-2.744 1.116-.255.04-.45.255-.431.51l.039 1.43c0 .274-.216.51-.49.51l-.686.019a.502.502 0 0 1-.51-.49l-.039-1.43a.508.508 0 0 0-.47-.49c-1.176-.078-2-.431-2.705-1.038-.686-.588-1.097-1.372-1.234-2.351a.494.494 0 0 1 .117-.392.455.455 0 0 1 .373-.176l2.097-.06c.254 0 .47.177.51.412.078.412.195.725.372.94.587.706 2.9.49 3.468.06.51-.392.51-1.235.02-1.627-1.176-.98-4.116-.685-5.88-2.116z" fill="#F6C1C1"/></g></svg>