<svg width="47" height="48" xmlns="http://www.w3.org/2000/svg"><g fill-rule="nonzero" fill="none"><path d="M46.553 9.112a1.786 1.786 0 0 0-1.32-.605c-.408 0-.816.137-1.146.43L21.655 28.74c-.078.079-.155.118-.214.157-.058-.078-.097-.137-.136-.196l-.038-.058c-.02-.02-.02-.04-.04-.059l-6.875-9.541a1.764 1.764 0 0 0-1.417-.722c-.35 0-.719.117-1.03.332a1.773 1.773 0 0 0-.388 2.458l6.856 9.503.02.039c.349.526 1.067 1.62 2.485 1.834.155.02.291.039.447.039.854 0 1.709-.37 2.583-1.073l.039-.04 22.45-19.824a1.763 1.763 0 0 0 .156-2.478z" fill="#52B4CA"/><path d="M36.57 22.341L24.958 32.585c-.02.02-.059.04-.078.059-1.146.956-2.35 1.444-3.574 1.444-.213 0-.446-.02-.66-.059-2.097-.312-3.146-1.912-3.554-2.497v-.02l-6.836-9.483a3.32 3.32 0 0 1 .738-4.624 3.325 3.325 0 0 1 4.622.741l6.098 8.469 14.858-13.113v-3.239c.02-.214.02-.429.02-.683-.04-1.112-.331-1.404-1.419-1.268-4.525.586-8.914.02-13.206-1.541-.389-.137-.7-.195-1.107-.04-4.409 1.64-8.973 2.167-13.634 1.562-1.165-.156-1.127.468-1.127 1.248.02 5.522 0 11.025.02 16.547 0 1.112.116 2.224.388 3.297 1.224 4.722 4.506 7.747 8.604 9.795 6.759 3.376 5.613 3.259 12.255.157.816-.39 1.592-.917 2.35-1.405 4.991-3.24 7.07-7.766 6.836-13.425v-2.166h.02z" fill="#7BC6D7"/><path d="M39.814 19.493v6.36h-.02v.469c.04 4.293-1.514 8.098-4.66 11.317-3.244 3.337-7.42 5.717-13.13 7.454a2.102 2.102 0 0 1-1.34-.02c-4.913-1.502-8.797-3.57-11.866-6.302-3.826-3.395-5.73-7.005-5.827-11.064-.116-5.034-.116-10.166-.097-15.122V4.507c0-.429.078-.507.078-.507h.078c.097 0 .252.039.466.098 2.447.76 4.933 1.15 7.38 1.15 3.321 0 6.662-.721 9.944-2.126.485-.215.718-.215 1.049-.059 3.301 1.464 6.68 2.186 10.04 2.186 2.486 0 5.03-.41 7.536-1.21.194-.059.31-.078.369-.078.02.039.039.137.02.351v6.322l2.757-2.439V2.38c0-.234.02-.487.02-.721V1.56l-.059-.098c-.33-.565-.757-.858-1.32-.858-.408 0-.816.156-1.204.312l-.078.04c-2.68 1.033-5.4 1.56-8.04 1.56-3.07 0-6.138-.702-9.148-2.068a3.183 3.183 0 0 0-1.34-.312c-.447 0-.913.117-1.418.35-2.971 1.367-6.04 2.05-9.09 2.05-2.66 0-5.398-.527-8.117-1.561C2.175.74 1.747.624 1.398.624.175.624.175 1.99.175 2.732v23.766c0 4.292 1.476 8.253 4.37 11.804 1.592 1.952 3.515 3.435 5.67 5.035l.02.02c3.185 1.95 6.487 3.433 9.808 4.39.544.155 1.01.233 1.437.233.35 0 .7-.058 1.03-.156 4.719-1.404 8.603-3.297 11.847-5.795 4.933-3.805 7.574-8.234 8.079-13.541.039-.488.078-.995.097-1.58h.039v-9.854l-2.758 2.439z" fill="#7BC6D7"/></g></svg>