<svg xmlns="http://www.w3.org/2000/svg" width="48" height="48"><g fill="none" fill-rule="evenodd"><path fill="#DBD69A" d="M7.553 13.404h5.153a.786.786 0 0 0 .776-.782.786.786 0 0 0-.776-.782H7.553a.786.786 0 0 0-.777.782c0 .427.353.782.777.782zm5.223 2.987A.786.786 0 0 0 12 15.61H.776A.786.786 0 0 0 0 16.39c0 .427.353.782.776.782H12c.424-.07.776-.355.776-.782zm-8.964 6.471a.786.786 0 0 0-.777.782c0 .427.353.783.777.783h6.564a.786.786 0 0 0 .777-.783.786.786 0 0 0-.777-.782H3.812zM12 20.09a.786.786 0 0 0-.776-.782H8.259a.786.786 0 0 0-.777.782c0 .427.353.782.777.782h2.965A.786.786 0 0 0 12 20.09z"/><path fill="#78AFC7" fill-rule="nonzero" d="M36.353 28.836c-2.753 0-5.012 1.99-5.435 4.693h-3.6c-.424-2.631-2.683-4.693-5.436-4.693-3.035 0-5.506 2.488-5.506 5.546 0 3.058 2.471 5.547 5.506 5.547 2.683 0 4.87-1.92 5.436-4.409h3.74c.495 2.56 2.754 4.409 5.436 4.409 3.035 0 5.506-2.489 5.506-5.547s-2.541-5.546-5.647-5.546zm-14.541 9.102c-1.906 0-3.53-1.565-3.53-3.556 0-1.92 1.553-3.555 3.53-3.555 1.906 0 3.53 1.564 3.53 3.555s-1.624 3.556-3.53 3.556zm14.54 0c-1.905 0-3.528-1.565-3.528-3.556 0-1.92 1.552-3.555 3.529-3.555 1.906 0 3.53 1.564 3.53 3.555s-1.554 3.556-3.53 3.556zM29.225 8.284H15.247c-1.412 0-2.753 1.067-3.247 2.49L9.318 24.497v.142c0 1.493 1.2 2.773 2.753 2.773h14.117c1.412 0 2.753-1.066 3.036-2.56L31.906 11.2v-.142c0-1.565-1.2-2.774-2.682-2.774zm-1.906 16.072c-.142.568-.565.924-1.06.924H12.142a.71.71 0 0 1-.706-.711L14.047 11.2c.212-.64.847-.996 1.27-.996H29.224a.71.71 0 0 1 .706.712l-2.611 13.44z"/><path fill="#78AFC7" d="M14.118 33.387h-1.13c-.564 0-.635-.427-.564-.64l.635-2.916c.212-.498-.07-1.067-.635-1.28-.142-.071-.212-.071-.353-.071-.424 0-.777.284-.918.64l-.847 3.769c-.07.427-.07 1.067.282 1.635.283.427.847.925 1.977.925h1.553a.969.969 0 0 0 .988-.996c0-.569-.494-1.066-.988-1.066z"/><path fill="#DBD69A" d="M9.106 29.689H3.388a.786.786 0 0 0-.776.782c0 .427.353.782.776.782h5.718a.786.786 0 0 0 .776-.782.786.786 0 0 0-.776-.782z"/><path fill="#78AFC7" d="M24.424 14.756h-6.636l-1.2 5.973h6.636l.423-2.133h-3.459l.353-1.636h5.506l-.635 3.271c-.141.853-.424 1.422-.847 1.778-.353.284-.989.498-1.906.498h-6.283c-.917 0-1.482-.143-1.694-.498-.211-.285-.282-.925-.14-1.778l.987-4.978c.142-.853.424-1.422.847-1.777.353-.285.989-.498 1.906-.498h6.283c.847 0 1.411.142 1.694.498.282.284.282.853.141 1.706l-.07.214-2.118.355.212-.995zM47.153 30.4c-.635-2.773-1.27-5.476-1.906-8.249l-1.13-4.907c-.282-1.28-.776-2.275-1.411-3.128-1.27-1.636-2.824-2.49-4.659-2.49h-2.965c-.847 0-1.2.356-1.27 1.138l-2.188 11.734c-.071.284-.142.569-.142.853 0 .213-.07.427-.07.711 0 .925.353 1.28 1.27 1.28h4.942c.635 0 1.058-.426 1.129-.995 0-.57-.424-1.067-1.059-1.067h-3.953L36 13.831h2.329a3.794 3.794 0 0 1 2.26.996c.776.71 1.34 1.706 1.623 2.986l.917 3.911c.565 2.56 1.13 5.05 1.695 7.61.282 1.137.423 2.204.494 3.27.07.854-.353 1.494-1.13 1.85-.282.142-.494.284-.564.568-.071.285-.071.57 0 .782.14.356.494.64.917.64.141 0 .283 0 .494-.07 1.13-.498 1.906-1.352 2.189-2.56.211-1.067.211-2.134-.071-3.414z"/></g></svg>