<svg width="44" height="47" xmlns="http://www.w3.org/2000/svg"><g fill-rule="nonzero" fill="none"><path d="M37.021 46.629H6.722c-.176-.04-.353-.098-.529-.138a7.185 7.185 0 0 1-3.841-2.018C.902 43.004.176 41.241.176 39.164V10.031c0-1.038.216-2.018.686-2.92.941-1.762 2.41-2.88 4.292-3.487a6.471 6.471 0 0 1 2.058-.333v.49c0 1.117-.02 2.234 0 3.33 0 .471.04.941.157 1.392a4.251 4.251 0 0 0 4.547 3.115c1.92-.196 3.665-1.842 3.763-3.781.078-1.352.039-2.724.059-4.075v-.51H27.83v3.84c.02 1.372.411 2.567 1.49 3.488.96.822 2.057 1.136 3.292.999 1.881-.177 3.527-1.744 3.704-3.625.117-1.41.059-2.84.098-4.27v-.432c1.274.02 2.43.314 3.508.901 1.529.823 2.646 1.999 3.273 3.645.333.842.392 1.724.392 2.625 0 9.521-.04 19.024.02 28.545.019 3.566-2.313 6.681-5.743 7.465-.294.058-.568.117-.843.196zm3.332-29.662H3.391v21.982c0 .96.196 1.88.764 2.664.901 1.234 2.156 1.783 3.684 1.783 9.368 0 18.736 0 28.104-.02.451 0 .922-.039 1.353-.156 1.94-.549 3.077-2.136 3.077-4.252v-21.63c0-.097-.02-.234-.02-.371z" fill="#FAB773"/><path d="M32.494.157c.549.235 1.098.49 1.313 1.097.098.255.177.529.177.784.02 1.763.02 3.526 0 5.309 0 .784-.353 1.391-1.098 1.704-.666.294-1.333.216-1.92-.235a1.735 1.735 0 0 1-.686-1.41c0-1.803-.02-3.605 0-5.408.02-.862.45-1.43 1.273-1.724a.916.916 0 0 0 .196-.098c.255-.02.49-.02.745-.02zM11.837.157c.177.078.373.156.53.254.607.353.94.902.96 1.607v5.349c0 1.077-.804 1.86-1.842 1.86-1.04 0-1.843-.783-1.862-1.86-.02-1.783-.02-3.566 0-5.349 0-.803.411-1.371 1.137-1.724.117-.059.215-.098.333-.157.254.02.51.02.744.02z" fill="#FAB773"/><path fill="#F8A046" d="M16.267 20.846l-.686 2.762h10.465l-6.898 15.87h3.821l6.487-16.536v-2.096z"/></g></svg>