<svg width="46" height="48" xmlns="http://www.w3.org/2000/svg"><g fill-rule="nonzero" fill="none"><path d="M26.754 47.628c-4.88.803-9.27-.353-13.287-3.213-1.647-1.176-3.587-1.47-5.586-1.49-1.607-.019-3.214-.038-4.821-.117C1.12 42.71.022 41.574.003 39.634a423.05 423.05 0 0 1 0-7.053c.02-1.822 1.038-2.86 2.841-3.134 1.529-.236 3.077-.51 4.567-.96 4.331-1.254 8.525-.94 12.014 1.9 3.88 3.174 8.27 4.095 13.052 4.467 1.627.117 2.685-.333 3.743-1.391 1.196-1.195 2.411-2.39 3.704-3.487 1.51-1.274 3.175-1.333 4.547-.334 1.666 1.215 1.98 3.292.745 4.938-2.724 3.663-5.41 7.347-8.153 10.99-.98 1.313-2.293 2.077-4.018 2.038-2.116-.02-4.194.02-6.29.02zM2.727 40.046c.45.039.823.117 1.195.078 5.547-.372 10.564 1.097 15.091 4.31.51.373 1.294.51 1.94.51 3.88.039 7.742-.02 11.622.039 1.176.02 1.96-.431 2.607-1.372a208.389 208.389 0 0 1 3.86-5.407c1.235-1.685 2.568-3.291 3.803-4.976.215-.294.117-.823.176-1.235-.47 0-.921 0-1.391.04-.098 0-.196.156-.294.235-1.568 1.45-3.136 2.88-4.665 4.369-.215.196-.372.568-.372.862-.04 2.997-1 4.114-3.979 4.29-2.822.177-5.644.216-8.466.451-1.568.118-2.92-.216-4.194-1.058-1.607-1.058-3.175-2.135-4.782-3.174-.745-.47-1.255-1.019-.784-1.92.51-.94 1.313-.92 2.116-.411 1.255.803 2.49 1.606 3.665 2.488 1.411 1.058 2.92 1.567 4.724 1.39 2.645-.254 5.291-.293 7.937-.508.392-.04.745-.51 1.117-.784-.372-.274-.745-.588-1.156-.784-.216-.117-.51-.039-.765-.039-4.919-.235-9.603-1.097-13.385-4.604-.412-.372-.921-.647-1.411-.92-2.333-1.353-4.88-1.647-7.448-1.157-2.254.412-4.449 1.117-6.742 1.724-.02 2.39-.02 4.918-.02 7.563z" fill="#92C5AA"/><path d="M28.087 5.27c.725-.705 1.372-1.41 2.077-2.037 3.646-3.272 8.114-3.488 11.74-.549 3.606 2.9 4.547 7.817 2.313 11.873-1.725 3.115-3.979 5.819-6.644 8.15-2.685 2.351-5.527 4.506-8.29 6.74-.726.587-1.45.724-2.254.137-4.743-3.35-9.25-6.975-12.837-11.58-1.94-2.487-3.724-5.093-3.489-8.482.255-3.703 2.058-6.426 5.41-8.013 3.253-1.548 6.35-1.137 9.152 1.136.96.803 1.842 1.724 2.822 2.625zm.216 21.982c3.292-2.958 6.604-5.76 9.681-8.796 1.549-1.529 2.803-3.43 3.92-5.33 1.646-2.762.843-6.347-1.646-8.346-2.607-2.096-5.507-2.018-8.173.314-.94.823-1.744 1.822-2.606 2.723-1.04 1.078-1.803 1.078-2.862 0-1.039-1.058-2.018-2.175-3.116-3.135-1.215-1.058-2.665-1.606-4.35-1.332-4.88.803-7.272 5.858-4.783 10.13 3.332 5.72 8.447 9.619 13.935 13.772z" fill="#EE8F8F"/></g></svg>