<?xml version="1.0" encoding="utf-8"?>
<!-- Generator: Adobe Illustrator 18.0.0, SVG Export Plug-In . SVG Version: 6.00 Build 0)  -->
<!DOCTYPE svg PUBLIC "-//W3C//DTD SVG 1.1//EN" "http://www.w3.org/Graphics/SVG/1.1/DTD/svg11.dtd">
<svg version="1.1" id="Layer_1" xmlns="http://www.w3.org/2000/svg" xmlns:xlink="http://www.w3.org/1999/xlink" x="0px" y="0px"
	 viewBox="0 0 208 54" enable-background="new 0 0 208 54" xml:space="preserve">
<g>
	<path fill="none" d="M-5-5h220v65H-5V-5z"/>
	<g>
		<path fill="#BE9243" d="M26.6,53.9C11.9,53.9,0,41.9,0,27.1C0,12.2,11.9,0.2,26.6,0.2c14.7,0,26.6,12,26.6,26.9
			S41.3,53.9,26.6,53.9L26.6,53.9z"/>
		<path fill="#010101" fill-opacity="0.2" d="M35.1,21.3l1-1.2l-0.8,0.5l-0.1-0.1c0,0,0,0,0,0V21.3z M35,21.3L34.7,21
			c-0.3,0.5-0.7,0.9-0.9,1.2l0.7-0.1l0.7,0.6l0.1-0.2l-0.8-0.7L35,21.3z M33.5,22.3c-1.4-1-7.4-6.4-7.4-6.4l-0.4-2.6l-0.2-1.6
			l-0.5-0.5l0.5-0.7l0.2,0.2l0.7-1.1l10,10.1l1.1-1.4l-0.1-1.2l0,0v-0.2l0.2,0l0.3-0.4l0.2,0.2l0.7-1.1L53,30.1
			c0,0.6-0.2,1.1-0.3,1.7c-0.2,1-0.4,1.9-0.5,3h0c-0.2,0.6-0.4,1.2-0.6,1.7c-2.5,6.7-7.6,12.2-14,15.1c-0.7,0.3-1.3,0.6-2,0.8
			c0,0-0.1,0-0.1,0c-0.7,0.2-1.4,0.4-2.1,0.6L16.8,36.4l9.4,4l1.4-5.3L16.8,24.1L33.5,22.3L33.5,22.3z M20.2,22l-1.4,0.6l0,0v0.9
			l-6.4-6.5l0.5-0.6l0.1,0.1l0.7-1.1C13.8,15.6,20.2,22,20.2,22z"/>
		<path fill="#FFFFFF" d="M16.8,26.1l17.7,0v10.2l-8.9,6l-8.9-6L16.8,26.1L16.8,26.1z M13.9,18.2l4.2,2.8l7.5-7.7l7.8,7.7l4-2.7
			l-2.9,5.8H16.8L13.9,18.2z M26.7,10.5c0,0.6-0.4,1-1,1c-0.6,0-1-0.4-1-1c0,0,0,0,0,0c0-0.6,0.4-1,1-1C26.2,9.4,26.7,9.9,26.7,10.5
			z M14.2,16.4c0,0.6-0.4,1-1,1c-0.6,0-1-0.4-1-1c0,0,0,0,0,0c0-0.6,0.4-1,1-1C13.7,15.3,14.2,15.8,14.2,16.4L14.2,16.4z M39,16.4
			c0,0.6-0.4,1-1,1c-0.6,0-1-0.4-1-1c0,0,0,0,0,0c0-0.6,0.4-1,1-1C38.5,15.3,39,15.8,39,16.4L39,16.4z"/>
	</g>
	<g>
		<path fill="#535353" d="M65.4,43.4c0.8,0.3,1.6,0.6,2.6,0.8c0.9,0.2,1.8,0.3,2.7,0.3c1.4,0,2.7-0.2,3.8-0.5
			c1.1-0.3,2.1-0.9,2.8-1.7c0.8-0.8,1.4-1.8,1.8-3c0.4-1.3,0.6-2.8,0.6-4.6v-9c0-1.2-0.2-2.4-0.6-3.5c-0.4-1.1-1-2.1-1.7-3
			c-0.7-0.9-1.6-1.5-2.7-2.1c-1-0.5-2.2-0.8-3.4-0.8c-1.1,0-2.1,0.2-3.1,0.7c-1,0.5-1.9,1.1-2.7,1.9c-0.8,0.8-1.4,1.8-1.9,2.9
			c-0.5,1.1-0.7,2.4-0.7,3.7c0,1.3,0.2,2.6,0.7,3.7c0.5,1.1,1.1,2.1,1.9,2.9c0.8,0.8,1.7,1.5,2.7,1.9c1,0.5,2,0.7,3.1,0.7
			c1.4,0,2.6-0.3,3.6-0.8c1-0.5,2-1.3,2.9-2.2v2c-0.3,0.3-0.7,0.5-1.1,0.9c-0.4,0.3-0.9,0.6-1.4,0.9c-0.5,0.3-1.1,0.5-1.8,0.7
			c-0.7,0.2-1.4,0.3-2.2,0.3c-1.4,0-2.7-0.3-4-0.8c-1.2-0.5-2.3-1.3-3.2-2.3c-0.9-1-1.6-2.1-2.1-3.4c-0.5-1.3-0.8-2.8-0.8-4.3
			c0-1.6,0.3-3,0.8-4.3c0.5-1.3,1.2-2.5,2.1-3.4c0.9-1,2-1.7,3.2-2.3c1.2-0.5,2.6-0.8,4-0.8s2.7,0.3,4,0.8c1.2,0.5,2.3,1.3,3.2,2.3
			c0.9,1,1.6,2.1,2.1,3.4c0.5,1.3,0.8,2.8,0.8,4.3v10.1c0,1.6-0.2,3.1-0.7,4.4c-0.5,1.3-1.2,2.3-2.2,3.2c-0.9,0.9-2,1.5-3.3,2
			c-1.3,0.5-2.7,0.7-4.2,0.7c-2.1,0-4.1-0.4-6-1.1L65.4,43.4z"/>
		<path fill="#535353" d="M96.2,14.8c1.5,0,2.9,0.3,4.2,0.9c1.3,0.6,2.4,1.4,3.3,2.3c0.9,1,1.7,2.1,2.2,3.4c0.5,1.3,0.8,2.7,0.8,4.2
			c0,1.5-0.3,2.8-0.8,4.2c-0.5,1.3-1.3,2.5-2.2,3.5c-0.9,1-2,1.8-3.3,2.3c-1.3,0.6-2.7,0.9-4.2,0.9c-1.5,0-2.9-0.3-4.2-0.9
			c-1.3-0.6-2.4-1.4-3.3-2.3c-0.9-1-1.7-2.1-2.2-3.5c-0.5-1.3-0.8-2.7-0.8-4.2c0-1.5,0.3-2.8,0.8-4.2c0.5-1.3,1.3-2.5,2.2-3.4
			c0.9-1,2-1.8,3.3-2.3C93.3,15.1,94.7,14.8,96.2,14.8z M96.2,16.4c-1.3,0-2.5,0.3-3.5,0.8c-1.1,0.5-2,1.2-2.8,2.1
			c-0.8,0.9-1.4,1.8-1.8,3c-0.4,1.1-0.7,2.3-0.7,3.5c0,1.2,0.2,2.4,0.7,3.5c0.4,1.1,1,2.1,1.8,3c0.8,0.8,1.7,1.5,2.8,2
			c1.1,0.5,2.2,0.8,3.5,0.8c1.3,0,2.4-0.3,3.5-0.8c1.1-0.5,2-1.2,2.8-2c0.8-0.8,1.4-1.8,1.8-3c0.4-1.1,0.7-2.3,0.7-3.5
			c0-1.2-0.2-2.4-0.7-3.5c-0.4-1.1-1-2.1-1.8-3c-0.8-0.9-1.7-1.5-2.8-2.1C98.6,16.6,97.4,16.4,96.2,16.4z"/>
		<path fill="#535353" d="M112.4,36V5.3h1.7V36H112.4z"/>
		<path fill="#535353" d="M139.8,5.3v20.3c0,1.6-0.3,3-0.8,4.3c-0.5,1.3-1.2,2.5-2.1,3.4c-0.9,1-2,1.7-3.2,2.3
			c-1.2,0.5-2.6,0.8-4,0.8c-1.4,0-2.7-0.3-4-0.8c-1.2-0.5-2.3-1.3-3.2-2.3c-0.9-1-1.6-2.1-2.1-3.4c-0.5-1.3-0.8-2.8-0.8-4.3
			c0-1.6,0.3-3,0.8-4.3c0.5-1.3,1.2-2.5,2.1-3.4c0.9-1,2-1.7,3.2-2.3c1.2-0.5,2.6-0.8,4-0.8c0.8,0,1.5,0.1,2.2,0.3
			c0.7,0.2,1.3,0.4,1.8,0.7c0.5,0.3,1,0.5,1.4,0.9c0.4,0.3,0.8,0.6,1.1,0.9v2c-0.9-0.9-1.9-1.7-2.9-2.2c-1-0.5-2.2-0.8-3.6-0.8
			c-1.1,0-2.1,0.2-3.1,0.7c-1,0.5-1.9,1.1-2.7,1.9c-0.8,0.8-1.4,1.8-1.9,2.9c-0.5,1.1-0.7,2.4-0.7,3.7c0,1.3,0.2,2.6,0.7,3.7
			c0.5,1.1,1.1,2.1,1.9,2.9c0.8,0.8,1.7,1.5,2.7,1.9c1,0.5,2,0.7,3.1,0.7c1.3,0,2.4-0.3,3.4-0.8c1-0.5,1.9-1.2,2.7-2
			c0.7-0.8,1.3-1.8,1.7-3c0.4-1.1,0.6-2.3,0.6-3.5V5.3H139.8z"/>
		<path fill="#535353" d="M146.7,15.2h7.4v1.6h-7.4v13.4c0,1.3,0.4,2.3,1.1,3.1c0.7,0.7,1.7,1.1,2.9,1.1h3.3V36h-3
			c-2,0-3.5-0.5-4.5-1.6c-1-1.1-1.5-2.5-1.5-4.4V9.6h1.7V15.2z"/>
		<path fill="#535353" d="M174.7,36V25.6c0-1.2-0.2-2.4-0.6-3.5c-0.4-1.1-1-2.1-1.7-3c-0.7-0.9-1.6-1.5-2.7-2.1
			c-1-0.5-2.2-0.8-3.4-0.8c-1.1,0-2.1,0.2-3.1,0.7c-1,0.5-1.9,1.1-2.7,1.9c-0.8,0.8-1.4,1.8-1.9,2.9c-0.5,1.1-0.7,2.4-0.7,3.7
			c0,1.3,0.2,2.6,0.7,3.7c0.5,1.1,1.1,2.1,1.9,2.9c0.8,0.8,1.7,1.5,2.7,1.9c1,0.5,2,0.7,3.1,0.7c1.4,0,2.6-0.3,3.6-0.8
			c1-0.5,2-1.3,2.9-2.2v2c-0.3,0.3-0.7,0.5-1.1,0.9c-0.4,0.3-0.9,0.6-1.4,0.9c-0.5,0.3-1.1,0.5-1.8,0.7c-0.7,0.2-1.4,0.3-2.2,0.3
			c-1.4,0-2.7-0.3-4-0.8c-1.2-0.5-2.3-1.3-3.2-2.3c-0.9-1-1.6-2.1-2.1-3.4c-0.5-1.3-0.8-2.8-0.8-4.3c0-1.6,0.3-3,0.8-4.3
			c0.5-1.3,1.2-2.5,2.1-3.4c0.9-1,2-1.7,3.2-2.3c1.2-0.5,2.6-0.8,4-0.8c1.4,0,2.7,0.3,4,0.8c1.2,0.5,2.3,1.3,3.2,2.3
			c0.9,1,1.6,2.1,2.1,3.4c0.5,1.3,0.8,2.8,0.8,4.3V36H174.7z"/>
		<path fill="#535353" d="M184.8,43.4c0.8,0.3,1.6,0.6,2.6,0.8c0.9,0.2,1.8,0.3,2.7,0.3c1.4,0,2.7-0.2,3.8-0.5
			c1.1-0.3,2.1-0.9,2.8-1.7c0.8-0.8,1.4-1.8,1.8-3c0.4-1.3,0.6-2.8,0.6-4.6v-9c0-1.2-0.2-2.4-0.6-3.5c-0.4-1.1-1-2.1-1.7-3
			c-0.7-0.9-1.6-1.5-2.7-2.1c-1-0.5-2.2-0.8-3.4-0.8c-1.1,0-2.1,0.2-3.1,0.7c-1,0.5-1.9,1.1-2.7,1.9c-0.8,0.8-1.4,1.8-1.9,2.9
			c-0.5,1.1-0.7,2.4-0.7,3.7c0,1.3,0.2,2.6,0.7,3.7c0.5,1.1,1.1,2.1,1.9,2.9c0.8,0.8,1.7,1.5,2.7,1.9c1,0.5,2,0.7,3.1,0.7
			c1.4,0,2.6-0.3,3.6-0.8c1-0.5,2-1.3,2.9-2.2v2c-0.3,0.3-0.7,0.5-1.1,0.9c-0.4,0.3-0.9,0.6-1.4,0.9c-0.5,0.3-1.1,0.5-1.8,0.7
			c-0.7,0.2-1.4,0.3-2.2,0.3c-1.4,0-2.7-0.3-4-0.8c-1.2-0.5-2.3-1.3-3.2-2.3c-0.9-1-1.6-2.1-2.1-3.4s-0.8-2.8-0.8-4.3
			c0-1.6,0.3-3,0.8-4.3c0.5-1.3,1.2-2.5,2.1-3.4c0.9-1,2-1.7,3.2-2.3c1.2-0.5,2.6-0.8,4-0.8c1.4,0,2.7,0.3,4,0.8
			c1.2,0.5,2.3,1.3,3.2,2.3c0.9,1,1.6,2.1,2.1,3.4c0.5,1.3,0.8,2.8,0.8,4.3v10.1c0,1.6-0.2,3.1-0.7,4.4c-0.5,1.3-1.2,2.3-2.2,3.2
			c-0.9,0.9-2,1.5-3.3,2c-1.3,0.5-2.7,0.7-4.2,0.7c-2.1,0-4.1-0.4-6-1.1L184.8,43.4z"/>
	</g>
	<g>
		<path fill="#535353" d="M95.5,45.8h-0.9c-0.6,0-1,0-1.2-0.1c-0.1,0-0.3-0.1-0.4-0.1c-0.1,0-0.2-0.1-0.4-0.2
			c-0.4,0.2-0.6,0.3-0.8,0.4c-0.2,0.1-0.6,0.1-1.2,0.1h-1.4c-1.7,0-2.5-0.8-2.5-2.5V42h0.6v1.3c0,1.3,0.6,1.9,1.9,1.9h2
			c0.3,0,0.6-0.1,0.9-0.2c-0.8-0.4-1.2-1-1.2-1.9c0-0.5,0.2-1,0.5-1.3c0.4-0.3,0.8-0.5,1.4-0.5c0.6,0,1,0.2,1.4,0.5
			c0.3,0.3,0.5,0.8,0.5,1.3c0,0.9-0.4,1.5-1.2,1.9c0.3,0.1,0.6,0.2,0.9,0.2h1.4V45.8z M92.6,44.6c0.8-0.3,1.2-0.9,1.2-1.6
			c0-0.4-0.1-0.6-0.3-0.9c-0.2-0.2-0.5-0.3-0.9-0.3c-0.4,0-0.7,0.1-0.9,0.3c-0.2,0.2-0.3,0.5-0.3,0.8C91.4,43.8,91.8,44.3,92.6,44.6
			z M92.8,40.5h-0.6v-0.7h0.6V40.5z"/>
		<path fill="#535353" d="M97.2,45.8h-1.8v-0.6h1.8V45.8z"/>
		<path fill="#535353" d="M98.9,45.8h-1.8v-0.6h1.8V45.8z"/>
		<path fill="#535353" d="M101.8,45.8h-3v-0.6h0.6c0.4,0,0.6-0.1,0.7-0.4c0.1-0.2,0.1-0.5,0.1-0.9v-2.2h0.6v2.4
			c0,0.4-0.1,0.7-0.2,0.9h1.1V45.8z M99.7,47.2h-0.6v-0.7h0.6V47.2z M100.8,47.2h-0.6v-0.7h0.6V47.2z"/>
		<path fill="#535353" d="M107.3,45.8h-0.9c-0.5,0-0.8,0-1-0.1c-0.3-0.1-0.7-0.2-1-0.4c-0.4,0.2-0.7,0.4-1.1,0.4
			c-0.2,0-0.5,0.1-1,0.1h-0.9v-0.6h1.4c0.3,0,0.6-0.1,0.9-0.2c-0.4-0.2-0.7-0.5-0.9-0.8c-0.2-0.3-0.3-0.7-0.3-1.1
			c0-0.5,0.2-0.9,0.5-1.3c0.3-0.4,0.8-0.6,1.4-0.6c0.6,0,1.1,0.2,1.4,0.6c0.3,0.3,0.5,0.8,0.5,1.3c0,0.4-0.1,0.8-0.3,1.1
			c-0.2,0.4-0.5,0.6-0.9,0.8c0.3,0.1,0.6,0.2,0.9,0.2h1.4V45.8z M104.4,44.6c0.4-0.2,0.7-0.4,0.9-0.7c0.2-0.3,0.3-0.6,0.3-0.9
			c0-0.3-0.1-0.6-0.3-0.8c-0.2-0.2-0.5-0.4-0.9-0.4c-0.4,0-0.7,0.1-0.9,0.3c-0.2,0.2-0.3,0.5-0.3,0.8c0,0.3,0.1,0.6,0.3,0.9
			C103.7,44.2,104,44.5,104.4,44.6z M104.7,40.5h-0.6v-0.7h0.6V40.5z"/>
		<path fill="#535353" d="M114.1,45.8h-7v-0.6h5.3l0-0.3c0-1.6-0.7-2.3-2.2-2.3c-0.7,0-1.3,0.3-1.6,0.9l-0.5-0.5
			c0.5-0.6,1.2-0.9,2.2-0.9c0.9,0,1.6,0.3,2.1,0.8c0.5,0.5,0.8,1.3,0.8,2.2v0.3h1V45.8z M110.5,41.2h-0.6v-0.7h0.6V41.2z"/>
		<path fill="#535353" d="M116,41.9v2.4c0,1-0.4,1.5-1.3,1.5H114v-0.6h0.6c0.4,0,0.6-0.1,0.7-0.4c0.1-0.2,0.1-0.4,0.1-0.8v-2.2H116z
			 M114.9,41.2h-0.6v-0.7h0.6V41.2z M116,41.2h-0.6v-0.7h0.6V41.2z"/>
		<path fill="#535353" d="M124.9,45.8h-1.7c-0.5,1-1.2,1.5-2.1,1.5c-0.7,0-1.3-0.3-1.8-0.9c-0.5-0.6-0.7-1.3-0.7-2.2v-2.4h0.6v2.3
			c0,0.8,0.2,1.4,0.5,1.8c0.3,0.5,0.8,0.7,1.4,0.7c0.6,0,1-0.2,1.4-0.7c0.3-0.5,0.5-1.1,0.5-1.8v-2.3h0.6v2.4c0,0.3,0,0.7-0.1,0.9
			h1.5V45.8z M121.3,41.2h-0.6v-0.7h0.6V41.2z"/>
		<path fill="#535353" d="M126.5,45.8h-1.8v-0.6h1.8V45.8z"/>
		<path fill="#535353" d="M128.2,45.8h-1.8v-0.6h1.8V45.8z"/>
		<path fill="#535353" d="M130.2,41.9v2.4c0,1-0.4,1.5-1.3,1.5h-0.8v-0.6h0.6c0.4,0,0.6-0.1,0.7-0.4c0.1-0.2,0.1-0.4,0.1-0.8v-2.2
			H130.2z M129,47.2h-0.6v-0.7h0.6V47.2z M130.2,47.2h-0.6v-0.7h0.6V47.2z"/>
		<path fill="#535353" d="M134.3,45.8h-1.5c-0.2,0.9-0.8,1.4-1.8,1.4v-0.6c0.8,0,1.2-0.5,1.2-1.5v-3.3h0.6v3.4h1.4V45.8z"/>
		<path fill="#535353" d="M137.2,45.8h-3v-0.6h0.6c0.4,0,0.6-0.1,0.7-0.4c0.1-0.2,0.1-0.5,0.1-0.9v-2.2h0.6v2.4
			c0,0.4-0.1,0.7-0.2,0.9h1.1V45.8z M135,41.2h-0.6v-0.7h0.6V41.2z M136.2,41.2h-0.6v-0.7h0.6V41.2z"/>
		<path fill="#535353" d="M143.8,45.8H137v-0.6h1.5c-0.3-0.3-0.4-0.7-0.4-1.2c0-0.5,0.1-0.9,0.4-1.2c0.3-0.3,0.7-0.5,1.2-0.5
			c0.5,0,0.8,0.2,1.1,0.5c0.3,0.3,0.4,0.7,0.4,1.2c0,0.5-0.1,0.9-0.4,1.2h1.3c0.1-0.2,0.1-0.5,0.1-0.7c0-0.7-0.2-1.3-0.6-1.9
			c-0.4-0.5-0.9-0.8-1.4-1V41c0.8,0.1,1.5,0.6,2,1.4c0.4,0.6,0.6,1.3,0.6,2.2c0,0.2,0,0.4,0,0.6h1V45.8z M140.6,44
			c0-0.8-0.3-1.2-0.9-1.2c-0.6,0-1,0.4-1,1.2c0,0.8,0.3,1.2,0.9,1.2C140.3,45.2,140.6,44.8,140.6,44z"/>
		<path fill="#535353" d="M145.5,41.9v2.4c0,1-0.4,1.5-1.3,1.5h-0.8v-0.6h0.6c0.4,0,0.6-0.1,0.7-0.4c0.1-0.2,0.1-0.4,0.1-0.8v-2.2
			H145.5z M145.5,47.2h-0.6v-0.7h0.6V47.2z"/>
		<path fill="#535353" d="M154,45.8h-1.7c-0.5,1-1.2,1.5-2.1,1.5c-0.7,0-1.3-0.3-1.8-0.9c-0.5-0.6-0.7-1.3-0.7-2.2v-2.4h0.6v2.3
			c0,0.8,0.2,1.4,0.5,1.8c0.3,0.5,0.8,0.7,1.4,0.7c0.6,0,1-0.2,1.4-0.7c0.3-0.5,0.5-1.1,0.5-1.8v-2.3h0.6v2.4c0,0.3,0,0.7-0.1,0.9
			h1.5V45.8z M150.5,41.2h-0.6v-0.7h0.6V41.2z"/>
		<path fill="#535353" d="M155.6,45.8h-1.8v-0.6h1.8V45.8z"/>
		<path fill="#535353" d="M157.4,45.8h-1.8v-0.6h1.8V45.8z"/>
		<path fill="#535353" d="M160.3,45.8h-3v-0.6h0.6c0.4,0,0.6-0.1,0.7-0.4c0.1-0.2,0.1-0.5,0.1-0.9v-2.2h0.6v2.4
			c0,0.4-0.1,0.7-0.2,0.9h1.1V45.8z M158.1,47.2h-0.6v-0.7h0.6V47.2z M159.3,47.2h-0.6v-0.7h0.6V47.2z"/>
		<path fill="#535353" d="M165.7,45.8h-1.3c-0.3,0.5-0.8,0.8-1.5,0.8c-0.7,0-1.2-0.3-1.5-0.8h-1.3v-0.6h1c0-0.2-0.1-0.4-0.1-0.6
			c0-0.6,0.2-1,0.5-1.4c0.3-0.4,0.8-0.6,1.4-0.6c0.6,0,1,0.2,1.4,0.6c0.3,0.4,0.5,0.8,0.5,1.4c0,0.2,0,0.4-0.1,0.6h1.1V45.8z
			 M164,44.6c0-0.4-0.1-0.7-0.2-0.9c-0.2-0.3-0.5-0.4-0.8-0.4c-0.4,0-0.7,0.2-0.9,0.5c-0.2,0.2-0.2,0.6-0.2,1c0,0.4,0.1,0.7,0.2,1
			c0.2,0.3,0.5,0.4,0.9,0.4C163.6,46.1,164,45.6,164,44.6z"/>
		<path fill="#535353" d="M173.8,45.8h-8.3v-0.6h0.8c0.6,0,0.9-0.5,0.9-1.4v-1.6h0.6v1.5c0,0,0,0.1,0,0.1c0.3-0.6,0.7-1.1,1.2-1.5
			c0.5-0.4,1-0.5,1.5-0.5c1.4,0,2.1,1,2.1,3v0.4h1.2V45.8z M172,45.2c0-0.2,0-0.4,0-0.6c0-0.7-0.1-1.2-0.4-1.6
			c-0.3-0.4-0.6-0.6-1.1-0.6c-0.6,0-1.1,0.3-1.7,0.9c-0.6,0.6-0.9,1.2-1.2,2H172z M170.7,41.2h-0.6v-0.7h0.6V41.2z"/>
		<path fill="#535353" d="M175.8,41.9v2.4c0,1-0.4,1.5-1.3,1.5h-0.8v-0.6h0.6c0.4,0,0.6-0.1,0.7-0.4c0.1-0.2,0.1-0.4,0.1-0.8v-2.2
			H175.8z M174.6,41.2H174v-0.7h0.6V41.2z M175.8,41.2h-0.6v-0.7h0.6V41.2z"/>
	</g>
</g>
</svg>
